<svg data-v-fde0c5aa="" xmlns="http://www.w3.org/2000/svg" viewBox="0 0 300 300" class="iconLeft"><!----><defs data-v-fde0c5aa=""><!----></defs><rect data-v-fde0c5aa="" fill="transparent" x="0" y="0" width="300px" height="300px" class="logo-background-square"></rect><defs data-v-fde0c5aa=""><!----></defs><g data-v-fde0c5aa="" id="05cb3cfe-9e35-48a9-ac6d-63d885014b30" fill="#000000" transform="matrix(2.503023009244045,0,0,2.503023009244045,90.37013518702636,128.92454547443245)"><path d="M5.80 5.84L5.80 5.84Q7.21 5.84 8.07 6.68L8.07 6.68L8.07 6.68Q8.93 7.52 8.93 9.21L8.93 9.21L8.93 13.55L6.27 13.55L6.27 9.65L6.27 9.65Q6.27 8.09 5.03 8.09L5.03 8.09L5.03 8.09Q4.34 8.09 3.93 8.54L3.93 8.54L3.93 8.54Q3.51 8.99 3.51 9.88L3.51 9.88L3.51 13.55L0.85 13.55L0.85 3.16L3.51 3.16L3.51 6.66L3.51 6.66Q3.95 6.26 4.54 6.05L4.54 6.05L4.54 6.05Q5.12 5.84 5.80 5.84L5.80 5.84ZM13.83 5.84L13.83 5.84Q15.72 5.84 16.72 6.70L16.72 6.70L16.72 6.70Q17.71 7.56 17.71 9.34L17.71 9.34L17.71 13.55L15.23 13.55L15.23 12.57L15.23 12.57Q14.66 13.68 12.99 13.68L12.99 13.68L12.99 13.68Q12.11 13.68 11.47 13.37L11.47 13.37L11.47 13.37Q10.82 13.06 10.49 12.54L10.49 12.54L10.49 12.54Q10.16 12.01 10.16 11.34L10.16 11.34L10.16 11.34Q10.16 10.26 10.99 9.67L10.99 9.67L10.99 9.67Q11.82 9.07 13.54 9.07L13.54 9.07L15.05 9.07L15.05 9.07Q14.98 7.87 13.44 7.87L13.44 7.87L13.44 7.87Q12.89 7.87 12.33 8.04L12.33 8.04L12.33 8.04Q11.77 8.22 11.38 8.53L11.38 8.53L10.49 6.72L10.49 6.72Q11.12 6.30 12.02 6.07L12.02 6.07L12.02 6.07Q12.92 5.84 13.83 5.84L13.83 5.84ZM13.73 12.00L13.73 12.00Q14.20 12.00 14.55 11.77L14.55 11.77L14.55 11.77Q14.90 11.55 15.05 11.12L15.05 11.12L15.05 10.46L13.90 10.46L13.90 10.46Q12.74 10.46 12.74 11.23L12.74 11.23L12.74 11.23Q12.74 11.58 13.01 11.79L13.01 11.79L13.01 11.79Q13.27 12.00 13.73 12.00L13.73 12.00ZM22.15 13.68L22.15 13.68Q21.20 13.68 20.27 13.46L20.27 13.46L20.27 13.46Q19.35 13.24 18.79 12.89L18.79 12.89L19.59 11.07L19.59 11.07Q20.10 11.40 20.82 11.58L20.82 11.58L20.82 11.58Q21.53 11.77 22.23 11.77L22.23 11.77L22.23 11.77Q22.88 11.77 23.15 11.64L23.15 11.64L23.15 11.64Q23.42 11.51 23.42 11.26L23.42 11.26L23.42 11.26Q23.42 11.00 23.09 10.90L23.09 10.90L23.09 10.90Q22.76 10.79 22.05 10.70L22.05 10.70L22.05 10.70Q21.14 10.58 20.50 10.40L20.50 10.40L20.50 10.40Q19.87 10.22 19.40 9.73L19.40 9.73L19.40 9.73Q18.94 9.24 18.94 8.36L18.94 8.36L18.94 8.36Q18.94 7.63 19.38 7.06L19.38 7.06L19.38 7.06Q19.81 6.50 20.64 6.17L20.64 6.17L20.64 6.17Q21.48 5.84 22.64 5.84L22.64 5.84L22.64 5.84Q23.46 5.84 24.28 6.01L24.28 6.01L24.28 6.01Q25.09 6.17 25.63 6.48L25.63 6.48L24.84 8.29L24.84 8.29Q23.83 7.73 22.65 7.73L22.65 7.73L22.65 7.73Q22.02 7.73 21.73 7.87L21.73 7.87L21.73 7.87Q21.43 8.02 21.43 8.26L21.43 8.26L21.43 8.26Q21.43 8.53 21.76 8.63L21.76 8.63L21.76 8.63Q22.08 8.74 22.82 8.85L22.82 8.85L22.82 8.85Q23.76 8.99 24.37 9.17L24.37 9.17L24.37 9.17Q24.99 9.35 25.45 9.83L25.45 9.83L25.45 9.83Q25.90 10.32 25.90 11.19L25.90 11.19L25.90 11.19Q25.90 11.90 25.47 12.47L25.47 12.47L25.47 12.47Q25.03 13.03 24.19 13.36L24.19 13.36L24.19 13.36Q23.34 13.68 22.15 13.68L22.15 13.68ZM31.99 5.84L31.99 5.84Q33.40 5.84 34.27 6.68L34.27 6.68L34.27 6.68Q35.13 7.52 35.13 9.21L35.13 9.21L35.13 13.55L32.47 13.55L32.47 9.65L32.47 9.65Q32.47 8.09 31.22 8.09L31.22 8.09L31.22 8.09Q30.53 8.09 30.12 8.54L30.12 8.54L30.12 8.54Q29.71 8.99 29.71 9.88L29.71 9.88L29.71 13.55L27.05 13.55L27.05 3.16L29.71 3.16L29.71 6.66L29.71 6.66Q30.14 6.26 30.73 6.05L30.73 6.05L30.73 6.05Q31.32 5.84 31.99 5.84L31.99 5.84ZM36.79 13.55L36.79 3.16L39.45 3.16L39.45 13.55L36.79 13.55ZM44.41 5.84L44.41 5.84Q46.30 5.84 47.29 6.70L47.29 6.70L47.29 6.70Q48.29 7.56 48.29 9.34L48.29 9.34L48.29 13.55L45.81 13.55L45.81 12.57L45.81 12.57Q45.23 13.68 43.57 13.68L43.57 13.68L43.57 13.68Q42.69 13.68 42.04 13.37L42.04 13.37L42.04 13.37Q41.40 13.06 41.07 12.54L41.07 12.54L41.07 12.54Q40.74 12.01 40.74 11.34L40.74 11.34L40.74 11.34Q40.74 10.26 41.57 9.67L41.57 9.67L41.57 9.67Q42.39 9.07 44.11 9.07L44.11 9.07L45.63 9.07L45.63 9.07Q45.56 7.87 44.02 7.87L44.02 7.87L44.02 7.87Q43.47 7.87 42.91 8.04L42.91 8.04L42.91 8.04Q42.35 8.22 41.96 8.53L41.96 8.53L41.06 6.72L41.06 6.72Q41.69 6.30 42.59 6.07L42.59 6.07L42.59 6.07Q43.50 5.84 44.41 5.84L44.41 5.84ZM44.31 12.00L44.31 12.00Q44.77 12.00 45.12 11.77L45.12 11.77L45.12 11.77Q45.47 11.55 45.63 11.12L45.63 11.12L45.63 10.46L44.48 10.46L44.48 10.46Q43.32 10.46 43.32 11.23L43.32 11.23L43.32 11.23Q43.32 11.58 43.58 11.79L43.58 11.79L43.58 11.79Q43.85 12.00 44.31 12.00L44.31 12.00ZM54.91 5.84L54.91 5.84Q56.32 5.84 57.18 6.68L57.18 6.68L57.18 6.68Q58.04 7.52 58.04 9.21L58.04 9.21L58.04 13.55L55.38 13.55L55.38 9.65L55.38 9.65Q55.38 8.09 54.14 8.09L54.14 8.09L54.14 8.09Q53.45 8.09 53.04 8.54L53.04 8.54L53.04 8.54Q52.63 8.99 52.63 9.88L52.63 9.88L52.63 13.55L49.97 13.55L49.97 5.96L52.50 5.96L52.50 6.79L52.50 6.79Q52.95 6.33 53.56 6.08L53.56 6.08L53.56 6.08Q54.18 5.84 54.91 5.84L54.91 5.84ZM65.11 3.16L67.77 3.16L67.77 13.55L65.24 13.55L65.24 12.80L65.24 12.80Q64.50 13.68 63.01 13.68L63.01 13.68L63.01 13.68Q61.98 13.68 61.12 13.20L61.12 13.20L61.12 13.20Q60.27 12.71 59.77 11.82L59.77 11.82L59.77 11.82Q59.28 10.92 59.28 9.74L59.28 9.74L59.28 9.74Q59.28 8.57 59.77 7.68L59.77 7.68L59.77 7.68Q60.27 6.79 61.12 6.31L61.12 6.31L61.12 6.31Q61.98 5.84 63.01 5.84L63.01 5.84L63.01 5.84Q64.37 5.84 65.11 6.62L65.11 6.62L65.11 3.16ZM63.57 11.56L63.57 11.56Q64.26 11.56 64.71 11.08L64.71 11.08L64.71 11.08Q65.16 10.60 65.16 9.74L65.16 9.74L65.16 9.74Q65.16 8.90 64.72 8.43L64.72 8.43L64.72 8.43Q64.27 7.95 63.57 7.95L63.57 7.95L63.57 7.95Q62.87 7.95 62.43 8.43L62.43 8.43L62.43 8.43Q61.98 8.90 61.98 9.74L61.98 9.74L61.98 9.74Q61.98 10.60 62.43 11.08L62.43 11.08L62.43 11.08Q62.87 11.56 63.57 11.56L63.57 11.56Z"></path></g><defs data-v-fde0c5aa=""><!----></defs><g data-v-fde0c5aa="" id="5bb2f71c-e5e6-41a9-ad49-bbfee6a4d49a" stroke="none" fill="#288642" transform="matrix(1.2343032751425167,0,0,1.2343032751425167,40,130.25114759771972)"><path d="M16 32c8.837 0 16-7.163 16-16S24.837 0 16 0 0 7.163 0 16s7.163 16 16 16zM14.817 6.421h2v8.886h8.887v2H14.817V6.421zm-5.959.437h2v14.283h14.283v2H8.858V6.858z"></path></g><!----></svg>